<?xml version="1.0" encoding="iso-8859-1"?>
<!-- Generator: Adobe Illustrator 19.0.0, SVG Export Plug-In . SVG Version: 6.00 Build 0)  -->
<svg xmlns="http://www.w3.org/2000/svg" xmlns:xlink="http://www.w3.org/1999/xlink" version="1.1" id="Capa_1" x="0px" y="0px" viewBox="0 0 512 512" style="enable-background:new 0 0 512 512;" xml:space="preserve" width="512px" height="512px">
<g>
	<g>
		<g>
			<path d="M10.236,491.996H10c-5.524,0-10,4.478-10,10c0,5.522,4.476,10,10,10h0.236c5.522,0,10-4.478,10-10     C20.236,496.473,15.759,491.996,10.236,491.996z" fill="#4db2fa"/>
			<path d="M502,491.996h-0.236c-5.523,0-10,4.478-10,10c0,5.522,4.477,10,10,10H502c5.522,0,10-4.478,10-10     C512,496.473,507.522,491.996,502,491.996z" fill="#4db2fa"/>
			<path d="M473.032,491.996H466v-99.995V342c0-5.523-4.478-10-10-10h-30.001V10.001c0-5.523-4.478-10-10-10h-200     c-5.523,0-10,4.477-10,10v121.998H56c-5.524,0-10,4.477-10,10v349.997h-7.033c-5.523,0-10,4.478-10,10c0,5.522,4.477,10,10,10     h16.955c0.026,0,0.051,0.004,0.078,0.004h159.999H456c0.025,0,0.051-0.004,0.076-0.004h16.956c5.522,0,10-4.478,10-10     C483.032,496.473,478.555,491.996,473.032,491.996z M225.999,20.001h180v21.5h-41.034c-5.523,0-10,4.477-10,10s4.477,10,10,10     h41.034v21.5h-70.001c-5.523,0-10,4.477-10,10s4.477,10,10,10h70.001v21.5h-70.001c-5.523,0-10,4.477-10,10s4.477,10,10,10     h70.001v21.498h-70.001c-5.523,0-10,4.477-10,10s4.477,10,10,10h70.001v21.5h-70.001c-5.523,0-10,4.476-10,10     c0,5.523,4.477,10,10,10h70.001v21.5h-70.001c-5.523,0-10,4.476-10,10c0,5.523,4.477,10,10,10h70.001v21.5h-70.001     c-5.523,0-10,4.477-10,10s4.477,10,10,10h70.001v21.5h-70.001c-0.016,0-0.032,0.002-0.049,0.002H306v-190c0-5.523-4.477-10-10-10     h-70.001V20.001z M205.999,341.999v50.002v60.001h-31.036c-5.522,0-10,4.478-10,10c0,5.522,4.478,10,10,10h31.036v19.994H90.002     h-1.48H66V151.999h149.999H286v180h-10.002h-59.999C210.476,331.999,205.999,336.476,205.999,341.999z M265.998,352v40.002     c0,11.027-8.971,19.998-19.998,19.998c-11.029,0-20.001-8.971-20.001-19.998V352H265.998z M296,491.997h-70.001v-65.378     C231.888,430.034,238.717,432,246,432c11.937,0,22.664-5.264,29.999-13.584c5.214,5.915,12.14,10.288,20.001,12.318V491.997z      M285.998,392.001v-40.002H296h29.998v40.002c0,11.027-8.971,19.998-19.998,19.998     C294.971,411.999,285.998,403.028,285.998,392.001z M355.999,491.996H316v-61.263c7.859-2.03,14.784-6.403,19.998-12.318     c5.215,5.915,12.14,10.288,20.001,12.318V491.996z M345.998,392.001V352H386v40.002c0,11.027-8.973,19.998-20.001,19.998     S345.998,403.028,345.998,392.001z M446,491.996h-24.004h-45.997v-61.263c7.86-2.03,14.786-6.403,20.001-12.318     c7.334,8.32,18.06,13.584,29.998,13.584c7.284,0,14.113-1.966,20.002-5.381V491.996z M446,392.001     c0,11.027-8.973,19.998-20.002,19.998c-11.027,0-19.998-8.971-19.998-19.998V352h9.999H446V392.001z" fill="#4db2fa"/>
			<path d="M335.998,61.501h0.236c5.523,0,10-4.477,10-10s-4.477-10-10-10h-0.236c-5.523,0-10,4.477-10,10     S330.475,61.501,335.998,61.501z" fill="#4db2fa"/>
			<path d="M115.998,171.998h-20c-5.523,0-10,4.477-10,10v19.999c0,5.523,4.477,10,10,10h20c5.522,0,10-4.477,10-10v-19.999     C125.998,176.475,121.52,171.998,115.998,171.998z" fill="#4db2fa"/>
			<path d="M115.998,241.996h-20c-5.523,0-10,4.477-10,10v19.999c0,5.523,4.477,10,10,10h20c5.522,0,10-4.477,10-10v-19.999     C125.998,246.474,121.52,241.996,115.998,241.996z" fill="#4db2fa"/>
			<path d="M115.998,311.995h-20c-5.523,0-10,4.477-10,10v20c0,5.522,4.477,10,10,10h20c5.522,0,10-4.477,10-10v-20     C125.998,316.472,121.52,311.995,115.998,311.995z" fill="#4db2fa"/>
			<path d="M115.998,381.995h-20c-5.523,0-10,4.477-10,10v19.998c0,5.523,4.477,10,10,10h20c5.522,0,10-4.477,10-10v-19.998     C125.998,386.472,121.52,381.995,115.998,381.995z" fill="#4db2fa"/>
			<path d="M185.996,171.998h-19.999c-5.522,0-10,4.477-10,10v19.999c0,5.523,4.478,10,10,10h19.999c5.523,0,10-4.477,10-10v-19.999     C195.996,176.475,191.519,171.998,185.996,171.998z" fill="#4db2fa"/>
			<path d="M185.996,241.996h-19.999c-5.522,0-10,4.477-10,10v19.999c0,5.523,4.478,10,10,10h19.999c5.523,0,10-4.477,10-10v-19.999     C195.996,246.474,191.519,241.996,185.996,241.996z" fill="#4db2fa"/>
			<path d="M256,171.998h-20.002c-5.523,0-10,4.477-10,10v19.999c0,5.523,4.477,10,10,10H256c5.522,0,10-4.477,10-10v-19.999     C266,176.475,261.522,171.998,256,171.998z" fill="#4db2fa"/>
			<path d="M146.234,452.003h-0.236c-5.523,0-10,4.478-10,10c0,5.522,4.477,10,10,10h0.236c5.522,0,10-4.478,10-10     C156.234,456.48,151.756,452.003,146.234,452.003z" fill="#4db2fa"/>
		</g>
	</g>
</g>
<g>
</g>
<g>
</g>
<g>
</g>
<g>
</g>
<g>
</g>
<g>
</g>
<g>
</g>
<g>
</g>
<g>
</g>
<g>
</g>
<g>
</g>
<g>
</g>
<g>
</g>
<g>
</g>
<g>
</g>
</svg>
