<?xml version="1.0" encoding="iso-8859-1"?>
<!-- Generator: Adobe Illustrator 19.0.0, SVG Export Plug-In . SVG Version: 6.00 Build 0)  -->
<svg xmlns="http://www.w3.org/2000/svg" xmlns:xlink="http://www.w3.org/1999/xlink" version="1.1" id="Capa_1" x="0px" y="0px" viewBox="0 0 512 512" style="enable-background:new 0 0 512 512;" xml:space="preserve" width="512px" height="512px">
<g>
	<g>
		<path d="M164.673,83.961h-23.982c-6.881,0-12.479,5.598-12.479,12.479v23.983c0,6.881,5.598,12.479,12.479,12.479h23.982    c6.881,0,12.479-5.598,12.479-12.48V96.44C177.152,89.558,171.554,83.961,164.673,83.961z M162.177,117.927h-18.99V98.935h18.99    V117.927z" fill="#4db2fa"/>
	</g>
</g>
<g>
	<g>
		<path d="M164.673,161.446h-23.982c-6.881,0-12.479,5.598-12.479,12.479v23.981c0,6.881,5.598,12.479,12.479,12.479h23.982    c6.881,0,12.479-5.598,12.479-12.479v-23.981C177.152,167.044,171.554,161.446,164.673,161.446z M162.177,195.411h-18.99v-18.99    h18.99V195.411z" fill="#4db2fa"/>
	</g>
</g>
<g>
	<g>
		<path d="M164.673,238.931h-23.982c-6.881,0-12.479,5.598-12.479,12.479v23.982c0,6.881,5.598,12.479,12.479,12.479h23.982    c6.881,0,12.479-5.598,12.479-12.479V251.41C177.152,244.529,171.554,238.931,164.673,238.931z M162.177,272.896h-18.99v-18.991    h18.99V272.896z" fill="#4db2fa"/>
	</g>
</g>
<g>
	<g>
		<path d="M233.552,83.961H209.57c-6.881,0-12.479,5.598-12.479,12.479v23.983c0,6.881,5.598,12.479,12.479,12.479h23.982    c6.88,0,12.478-5.598,12.479-12.48V96.44C246.031,89.558,240.433,83.961,233.552,83.961z M231.055,117.927h-18.99V98.935h18.99    V117.927z" fill="#4db2fa"/>
	</g>
</g>
<g>
	<g>
		<path d="M233.552,161.446H209.57c-6.881,0-12.479,5.598-12.479,12.479v23.981c0,6.881,5.598,12.479,12.479,12.479h23.982    c6.88,0,12.478-5.598,12.479-12.479v-23.981C246.031,167.044,240.433,161.446,233.552,161.446z M231.055,195.411h-18.99v-18.99    h18.99V195.411z" fill="#4db2fa"/>
	</g>
</g>
<g>
	<g>
		<path d="M233.552,238.931H209.57c-6.881,0-12.479,5.598-12.479,12.479v23.982c0,6.881,5.598,12.479,12.479,12.479h23.982    c6.88,0,12.478-5.598,12.479-12.479V251.41C246.031,244.529,240.433,238.931,233.552,238.931z M231.055,272.896h-18.99v-18.991    h18.99V272.896z" fill="#4db2fa"/>
	</g>
</g>
<g>
	<g>
		<path d="M302.43,83.961h-23.982c-6.881,0-12.479,5.598-12.479,12.479v23.983c0,6.881,5.598,12.479,12.479,12.479h23.982    c6.881,0,12.479-5.598,12.479-12.48V96.44C314.909,89.558,309.311,83.961,302.43,83.961z M299.934,117.927h-18.99V98.935h18.99    V117.927z" fill="#4db2fa"/>
	</g>
</g>
<g>
	<g>
		<path d="M302.43,161.446h-23.982c-6.881,0-12.479,5.598-12.479,12.479v23.981c0,6.881,5.598,12.479,12.479,12.479h23.982    c6.881,0,12.479-5.598,12.479-12.479v-23.981C314.909,167.044,309.311,161.446,302.43,161.446z M299.934,195.411h-18.99v-18.99    h18.99V195.411z" fill="#4db2fa"/>
	</g>
</g>
<g>
	<g>
		<path d="M302.43,238.931h-23.982c-6.881,0-12.479,5.598-12.479,12.479v23.982c0,6.881,5.598,12.479,12.479,12.479h23.982    c6.881,0,12.479-5.598,12.479-12.479V251.41C314.909,244.529,309.311,238.931,302.43,238.931z M299.934,272.896h-18.99v-18.991    h18.99V272.896z" fill="#4db2fa"/>
	</g>
</g>
<g>
	<g>
		<path d="M371.309,83.961h-23.982c-6.881,0-12.479,5.598-12.479,12.479v23.983c0,6.881,5.598,12.479,12.479,12.479h23.982    c6.881,0,12.479-5.598,12.479-12.48V96.44C383.788,89.558,378.19,83.961,371.309,83.961z M368.813,117.927h-18.99V98.935h18.99    V117.927z" fill="#4db2fa"/>
	</g>
</g>
<g>
	<g>
		<path d="M371.309,161.446h-23.982c-6.881,0-12.479,5.598-12.479,12.479v23.981c0,6.881,5.598,12.479,12.479,12.479h23.982    c6.881,0,12.479-5.598,12.479-12.479v-23.981C383.788,167.044,378.19,161.446,371.309,161.446z M368.813,195.411h-18.99v-18.99    h18.99V195.411z" fill="#4db2fa"/>
	</g>
</g>
<g>
	<g>
		<path d="M371.309,238.931h-23.982c-6.881,0-12.479,5.598-12.479,12.479v23.982c0,6.881,5.598,12.479,12.479,12.479h23.982    c6.881,0,12.479-5.598,12.479-12.479V251.41C383.788,244.529,378.19,238.931,371.309,238.931z M368.813,272.896h-18.99v-18.991    h18.99V272.896z" fill="#4db2fa"/>
	</g>
</g>
<g>
	<g>
		<path d="M503.249,488.594h-53.59v-34.742C484.654,450.104,512,420.404,512,384.43c0-38.504-31.325-69.828-69.828-69.828    c-7.544,0-14.806,1.218-21.618,3.442V145.63c0-4.135-3.352-7.487-7.487-7.487s-7.487,3.352-7.487,7.487v179.36    c-19.926,12.311-33.236,34.347-33.236,59.441c0,25.093,13.31,47.13,33.236,59.441v44.722H305.136V337.271    c0-6.881-5.598-12.479-12.479-12.479h-73.314c-6.881,0-12.479,5.598-12.479,12.479v68.619c0,4.135,3.352,7.487,7.487,7.487    c4.135,0,7.487-3.352,7.487-7.487v-66.123h68.323v148.827h-68.323V459.76c0-4.135-3.352-7.487-7.487-7.487    c-4.135,0-7.487,3.352-7.487,7.487v28.834H106.42v-44.722c19.926-12.312,33.236-34.348,33.236-59.441    c0-25.094-13.31-47.129-33.236-59.441V63.487h299.16v27.963c0,4.135,3.352,7.487,7.487,7.487s7.487-3.352,7.487-7.487V63.487    h13.504c6.881,0,12.479-5.598,12.479-12.479V20.91c0-6.881-5.598-12.479-12.479-12.479H77.942    c-6.881,0-12.479,5.598-12.479,12.479v30.097c0,6.881,5.598,12.479,12.479,12.479h13.504v254.558    c-6.812-2.224-14.073-3.442-21.618-3.442C31.325,314.602,0,345.927,0,384.43c0,35.974,27.346,65.673,62.341,69.422v34.742H8.751    c-4.135,0-7.487,3.352-7.487,7.487s3.352,7.487,7.487,7.487h61.076h0.001h0.001h433.42c4.135,0,7.487-3.352,7.487-7.487    S507.384,488.594,503.249,488.594z M80.438,48.511V23.406h351.125v25.105H80.438z M96.052,400.366    c-3.05-2.79-7.786-2.581-10.578,0.469l-8.159,8.917v-16.204c0-4.135-3.352-7.487-7.487-7.487s-7.487,3.352-7.487,7.487v45.213    c-26.715-3.665-47.367-26.624-47.367-54.331c0-30.246,24.607-54.854,54.853-54.854c30.247,0,54.854,24.607,54.854,54.854    c0,27.706-20.651,50.666-47.367,54.33v-6.825l19.207-20.99C99.313,407.893,99.102,403.159,96.052,400.366z M91.446,488.594H77.315    v-34.75c4.875-0.527,9.604-1.549,14.131-3.027V488.594z M434.685,488.594h-14.131v-37.777c4.527,1.478,9.255,2.5,14.131,3.027    V488.594z M442.172,386.062c-4.135,0-7.487,3.352-7.487,7.487v45.21c-4.948-0.681-9.691-2.009-14.131-3.92v-0.585    c-0.113,0.147-0.245,0.278-0.362,0.421c-19.332-8.492-32.874-27.811-32.874-50.244c0-30.246,24.607-54.854,54.854-54.854    c30.246,0,54.853,24.607,54.853,54.854c0,27.706-20.651,50.666-47.366,54.33v-6.826l19.206-20.99    c2.792-3.051,2.581-7.786-0.469-10.578c-3.051-2.79-7.786-2.582-10.578,0.47l-8.159,8.917v-16.205    C449.659,389.414,446.307,386.062,442.172,386.062z" fill="#4db2fa"/>
	</g>
</g>
<g>
</g>
<g>
</g>
<g>
</g>
<g>
</g>
<g>
</g>
<g>
</g>
<g>
</g>
<g>
</g>
<g>
</g>
<g>
</g>
<g>
</g>
<g>
</g>
<g>
</g>
<g>
</g>
<g>
</g>
</svg>
