<?xml version="1.0" encoding="iso-8859-1"?>
<!-- Generator: Adobe Illustrator 19.0.0, SVG Export Plug-In . SVG Version: 6.00 Build 0)  -->
<svg xmlns="http://www.w3.org/2000/svg" xmlns:xlink="http://www.w3.org/1999/xlink" version="1.1" id="Capa_1" x="0px" y="0px" viewBox="0 0 512.001 512.001" style="enable-background:new 0 0 512.001 512.001;" xml:space="preserve" width="512px" height="512px">
<g>
	<g>
		<g>
			<path d="M466,189.998h-40.003c-1.594,0-3.137,0.208-4.625,0.562c-2.056-8.62-4.771-16.986-8.088-25.045     c-0.028-0.076-0.049-0.153-0.08-0.229c-0.029-0.071-0.066-0.136-0.097-0.206c-4.386-10.573-9.8-20.616-16.132-29.992     c18.912-3.167,33.374-19.642,33.374-39.44V75.647c0-11.028-8.972-20-19.999-20h-40.001c-11.028,0-19.999,8.972-19.999,20v13.007     c-9.039-6.053-18.686-11.263-28.83-15.517c-0.041-0.018-0.079-0.04-0.121-0.057c-0.055-0.023-0.109-0.038-0.164-0.059     c-10.402-4.339-21.324-7.668-32.643-9.875c4.658-6.538,7.409-14.525,7.409-23.147V20c0-11.028-8.972-20-20-20h-40.002     c-11.027,0-20,8.972-20,20v19.999c0,8.623,2.752,16.609,7.41,23.149c-11.049,2.154-21.719,5.381-31.896,9.57     c-0.073,0.028-0.148,0.048-0.222,0.078c-0.068,0.028-0.131,0.064-0.199,0.094c-10.368,4.3-20.223,9.593-29.441,15.768V75.647     c0-11.028-8.971-20-19.998-20h-40.002c-11.028,0-20,8.972-20,20v20.001c0,19.798,14.463,36.273,33.377,39.44     c-6.207,9.189-11.533,19.016-15.872,29.357c-0.022,0.051-0.05,0.098-0.071,0.15c-0.027,0.067-0.047,0.136-0.073,0.204     c-3.451,8.279-6.265,16.886-8.38,25.762c-1.488-0.355-3.033-0.562-4.629-0.562H46.001c-11.026,0-19.998,8.972-19.998,20v19.999     c0,22.057,17.943,40.001,40,40.001c8.622,0,16.609-2.751,23.148-7.409c2.152,11.045,5.379,21.71,9.565,31.884     c0.029,0.078,0.051,0.157,0.083,0.235c0.021,0.049,0.05,0.091,0.07,0.14c5.242,12.655,11.97,24.543,19.966,35.448H95.706     c-11.027,0-20,8.972-20,20v20.001c0,22.055,17.945,39.999,40.002,39.999c22.056,0,40-17.943,40-39.999v-3.129     c8.084,5.927,16.707,11.16,25.783,15.604L135.93,491.999H90.003h-1.48H38.967c-5.523,0-10,4.477-10,10s4.477,10,10,10h49.555     h1.48h52.536c0.017,0,0.034,0.002,0.05,0.002c0.012,0,0.022-0.002,0.033-0.002h225.275c0.012,0,0.022,0.002,0.033,0.002     c0.018,0,0.033-0.002,0.051-0.002h54.016h51.036c5.522,0,10-4.477,10-10s-4.478-10-10-10h-51.036h-47.37l-44.785-108.892     c9.323-4.515,18.169-9.864,26.453-15.938v3.128c0,22.055,17.943,39.999,39.999,39.999c22.057,0,40-17.943,40-39.999v-20.001     c0-11.028-8.971-20-19.999-20h-23.126c7.863-10.726,14.506-22.4,19.709-34.822c0.012-0.026,0.027-0.048,0.038-0.074     c0.02-0.049,0.034-0.099,0.054-0.148c4.342-10.407,7.674-21.335,9.883-32.661c6.539,4.657,14.525,7.408,23.146,7.408     c22.057,0,40-17.944,40-40.001v-19.999C485.999,198.97,477.028,189.998,466,189.998z M66.003,249.998     c-7.384,0-13.83-4.032-17.294-10.001h34.589C79.833,245.965,73.387,249.998,66.003,249.998z M86.003,219.997h-40l-0.002-9.999     h40.002V219.997z M390.351,115.647c-7.383,0-13.829-4.031-17.294-9.999h34.587C404.179,111.616,397.733,115.647,390.351,115.647z      M410.35,75.647v10.001h-39.999l-0.001-10L410.35,75.647z M322.791,95.718c29.347,14.656,53.243,38.648,67.777,68.065     l-102.601,42.199c-2.247-2.982-4.9-5.64-7.878-7.893L322.791,95.718z M235.999,20h40.002v9.999h-40.002V20z M273.296,49.999     C269.831,55.967,263.385,60,256.001,60c-7.385,0-13.831-4.032-17.295-10.001H273.296z M256.003,80     c16.906,0,33.166,2.814,48.342,7.995l-42.719,102.407c-1.838-0.26-3.714-0.403-5.623-0.403c-1.878,0-3.723,0.14-5.532,0.392     l-42.2-102.602C223.27,82.74,239.322,80,256.003,80z M235.999,409.995v-10.001h19.792c0.071,0,0.141,0.003,0.212,0.003     c0.07,0,0.141-0.003,0.211-0.003h19.787v10.001H235.999z M273.296,429.995c-3.465,5.968-9.912,10-17.295,10     c-7.385,0-13.83-4.032-17.295-10H273.296z M256.194,379.994h-0.385c-16.839-0.021-33.035-2.832-48.154-7.994l42.719-102.408     c1.84,0.26,3.717,0.404,5.629,0.404c1.877,0,3.723-0.14,5.531-0.392l42.199,102.604     C288.792,377.237,272.806,379.973,256.194,379.994z M256.003,249.996c-11.027,0-19.999-8.972-19.999-19.999     c0-11.027,8.972-19.999,19.999-19.999c11.027,0,19.998,8.971,19.998,19.999C276.001,241.024,267.03,249.996,256.003,249.996z      M189.788,95.431l42.199,102.601c-2.982,2.246-5.639,4.899-7.891,7.876l-102.373-42.704     C136.38,133.859,160.372,109.964,189.788,95.431z M101.651,75.648l40-0.001v10.001h-40V75.648z M104.358,105.648h34.586     c-3.465,5.967-9.91,9.999-17.293,9.999S107.823,111.616,104.358,105.648z M113.793,277.728c-5.05-15-7.79-31.051-7.79-47.731     c0-16.908,2.815-33.169,7.996-48.345l102.408,42.719c-0.26,1.839-0.403,3.716-0.403,5.626c0,1.878,0.14,3.723,0.392,5.532     L113.793,277.728z M115.708,390.295c-7.385,0-13.83-4.032-17.295-9.999h34.588C129.536,386.263,123.091,390.295,115.708,390.295z      M135.708,360.296H95.706v-10.001h40.002V360.296z M121.434,296.211l102.604-42.199c2.244,2.981,4.898,5.638,7.873,7.891     l-42.703,102.374C159.862,349.619,135.967,325.627,121.434,296.211z M353.001,491.998H157.6l42.344-101.51     c5.421,1.899,10.964,3.532,16.618,4.88c-0.354,1.488-0.562,3.031-0.562,4.626v20.001c0,22.056,17.945,40,40.002,40     c22.057,0,40-17.944,40-40v-20.001c0-1.594-0.207-3.138-0.561-4.625c5.408-1.29,10.718-2.838,15.914-4.632L353.001,491.998z      M322.217,364.565l-42.199-102.604c2.981-2.246,5.64-4.899,7.892-7.876l102.371,42.706     C375.625,326.136,351.633,350.031,322.217,364.565z M396.294,390.295c-7.383,0-13.828-4.032-17.293-9.999h34.587     C410.123,386.263,403.677,390.295,396.294,390.295z M416.293,350.295v10.001h-40l-0.002-10.001H416.293z M398.004,278.343     l-102.405-42.721c0.26-1.84,0.402-3.716,0.402-5.626c0-1.878-0.139-3.723-0.391-5.533l102.602-42.199     c5.032,14.954,7.77,30.953,7.786,47.578v0.154c0,0.017,0.001,0.034,0.001,0.051C405.993,246.938,403.18,263.182,398.004,278.343z      M445.999,249.998c-7.385,0-13.83-4.032-17.295-10.001h34.59C459.829,245.965,453.383,249.998,445.999,249.998z M465.999,219.997     h-40.002v-9.999h40.002V219.997z" fill="#4db2fa"/>
			<path d="M10.237,491.998h-0.236c-5.524,0-10,4.477-10,10s4.476,10,10,10h0.236c5.522,0,10-4.477,10-10     S15.759,491.998,10.237,491.998z" fill="#4db2fa"/>
			<path d="M502.001,491.998h-0.236c-5.523,0-10,4.477-10,10s4.477,10,10,10h0.236c5.522,0,10-4.477,10-10     S507.523,491.998,502.001,491.998z" fill="#4db2fa"/>
		</g>
	</g>
</g>
<g>
</g>
<g>
</g>
<g>
</g>
<g>
</g>
<g>
</g>
<g>
</g>
<g>
</g>
<g>
</g>
<g>
</g>
<g>
</g>
<g>
</g>
<g>
</g>
<g>
</g>
<g>
</g>
<g>
</g>
</svg>
