<?xml version="1.0" encoding="iso-8859-1"?>
<!-- Generator: Adobe Illustrator 19.0.0, SVG Export Plug-In . SVG Version: 6.00 Build 0)  -->
<svg xmlns="http://www.w3.org/2000/svg" xmlns:xlink="http://www.w3.org/1999/xlink" version="1.1" id="Capa_1" x="0px" y="0px" viewBox="0 0 511.999 511.999" style="enable-background:new 0 0 511.999 511.999;" xml:space="preserve" width="512px" height="512px">
<g>
	<g>
		<path d="M481.506,147.149c-0.003-0.026-0.009-0.051-0.012-0.076c-0.028-0.247-0.068-0.49-0.119-0.729    c-0.003-0.013-0.004-0.026-0.006-0.039l-14.597-65.717c-0.901-4.05-4.911-6.604-8.965-5.706c-4.051,0.9-6.606,4.913-5.706,8.965    l12.566,56.573h-65.731L388.819,15.084h48.01l3.691,16.621c0.901,4.052,4.914,6.605,8.964,5.706    c4.051-0.9,6.606-4.913,5.706-8.964l-4.127-18.583c-1.283-5.775-6.311-9.808-12.226-9.808H305.978    c-0.367-0.041-0.739-0.065-1.12-0.052c-0.2,0.007-0.396,0.029-0.591,0.052H233.8c-0.182-0.013-0.364-0.028-0.549-0.028    c-0.186,0-0.368,0.014-0.55,0.028h-74.4c-0.377-0.03-0.749-0.026-1.117,0H99.956c-5.915,0-10.943,4.033-12.226,9.808    l-30.305,136.44c-0.003,0.013-0.003,0.026-0.006,0.038c-0.052,0.241-0.092,0.486-0.12,0.735c-0.003,0.024-0.008,0.047-0.011,0.071    c-0.027,0.258-0.041,0.519-0.041,0.784c0,0.011,0.001,0.021,0.001,0.032c0,0.017,0.001,0.033,0.001,0.05    c0.045,26.721,21.796,48.448,48.528,48.448c1.428,0,2.835-0.084,4.231-0.206v89.887H94.67l-21.934-21.472    c-2.354-2.305-5.466-3.574-8.761-3.574H37.967c-4.15,0-7.514,3.364-7.514,7.514c0,4.15,3.364,7.514,7.514,7.514h24.986    l21.137,20.692v26.022c0,6.905,5.618,12.523,12.523,12.523h3.942v129.187c0,6.905,5.618,12.523,12.523,12.523h11.877    c5.282,20.076,23.585,34.927,45.296,34.927s40.014-14.851,45.296-34.927h107.698c5.282,20.076,23.585,34.927,45.296,34.927    s40.014-14.851,45.296-34.927h11.877c6.905,0,12.523-5.618,12.523-12.523v-17.757h3.723c10.085,0,18.29-8.205,18.29-18.29v-59.599    c0-10.085-8.205-18.29-18.29-18.29h-3.723v-15.251h3.942c6.905,0,12.523-5.618,12.523-12.523v-24.172    c0-6.906-5.618-12.523-12.523-12.523h-13.394v-89.888c1.396,0.122,2.803,0.206,4.231,0.206c26.732,0,48.484-21.726,48.528-48.448    c0-0.016,0.001-0.033,0.001-0.05c0-0.011,0.001-0.021,0.001-0.032C481.548,147.668,481.533,147.407,481.506,147.149z     M438.239,365.643h3.723c1.799,0,3.262,1.463,3.262,3.262v59.599c0,1.799-1.463,3.262-3.262,3.262h-3.723V365.643z     M373.742,15.084l10.118,125.335h-66.405l-4.533-125.335H373.742z M383.865,155.447c-3.419,14.868-16.761,25.988-32.652,25.988    c-15.891,0-29.233-11.12-32.652-25.988H383.865z M240.493,15.084h57.391l4.533,125.335h-66.541L240.493,15.084z M301.844,155.447    c-3.419,14.868-16.761,25.988-32.652,25.988c-15.891,0-29.233-11.12-32.652-25.988H301.844z M164.552,15.084h60.902    l-4.616,125.335h-67.849L164.552,15.084z M219.713,155.447c-3.419,14.868-16.761,25.988-32.652,25.988    s-29.233-11.12-32.652-25.988H219.713z M187.061,196.463c17.277,0,32.465-9.083,41.066-22.717    c8.601,13.634,23.788,22.717,41.066,22.717c17.241,0,32.4-9.045,41.01-22.631c8.611,13.586,23.77,22.631,41.01,22.631    c17.169,0,32.273-8.97,40.902-22.462c5.189,8.113,12.73,14.572,21.643,18.448v93.696h-12.574    c-3.285-26.703-24.448-47.942-51.118-51.344v-6.83c0-4.15-3.364-7.514-7.514-7.514c-4.15,0-7.514,3.364-7.514,7.514v6.83    c-26.67,3.402-47.833,24.641-51.118,51.344h-25.872c-3.285-26.703-24.448-47.942-51.118-51.344v-6.83    c0-4.15-3.364-7.514-7.514-7.514c-4.15,0-7.514,3.364-7.514,7.514v6.83c-26.67,3.402-47.833,24.641-51.118,51.344h-15.747v-93.697    c8.765-3.811,16.204-10.118,21.383-18.042C155.09,187.672,170.064,196.463,187.061,196.463z M385.974,285.882h-86.843    c3.576-20.729,21.686-36.548,43.422-36.548C364.287,249.334,382.397,265.153,385.974,285.882z M242.837,285.882h-86.843    c3.576-20.729,21.686-36.548,43.421-36.548S239.26,265.153,242.837,285.882z M101.965,15.084h47.495l-11.567,125.335H74.127    L101.965,15.084z M105.777,181.435c-15.891,0-29.233-11.12-32.652-25.988h65.304C135.01,170.315,121.668,181.435,105.777,181.435z     M170.252,496.972c-17.538,0-31.807-14.269-31.807-31.807c0-17.539,14.269-31.807,31.807-31.807    c17.538,0,31.807,14.269,31.807,31.807C202.059,482.703,187.79,496.972,170.252,496.972z M368.542,496.972    c-17.538,0-31.807-14.269-31.807-31.807c0-17.539,14.269-31.807,31.807-31.807c17.538,0,31.807,14.269,31.807,31.807    C400.349,482.703,386.081,496.972,368.542,496.972z M439.676,301.174v19.161H194.258h-0.001h-7.195    c-4.15,0-7.514,3.364-7.514,7.514c0,4.15,3.364,7.514,7.514,7.514h7.196h228.953v22.765v81.151v22.766h-7.949    c-1.612-24.375-21.944-43.716-46.72-43.716s-45.107,19.341-46.72,43.716h-104.85c-1.612-24.375-21.944-43.716-46.72-43.716    s-45.107,19.341-46.72,43.716h-7.949V335.363h19.224c2.334,0,4.42-1.064,5.798-2.734c0.613-0.742,1.085-1.604,1.378-2.545    c0.073-0.235,0.135-0.476,0.185-0.72c0.1-0.489,0.153-0.995,0.153-1.514c0-0.519-0.053-1.025-0.153-1.514    c-0.15-0.734-0.407-1.428-0.754-2.067c-0.231-0.426-0.503-0.827-0.809-1.198c-0.306-0.371-0.647-0.712-1.019-1.019    c-0.371-0.306-0.772-0.578-1.198-0.809c-0.213-0.116-0.432-0.221-0.657-0.316c-0.899-0.38-1.887-0.59-2.925-0.59H99.119v-19.163    H439.676z M433.018,181.435c-15.891,0-29.233-11.12-32.652-25.988h65.304C462.251,170.315,448.909,181.435,433.018,181.435z" fill="#4db2fa"/>
	</g>
</g>
<g>
</g>
<g>
</g>
<g>
</g>
<g>
</g>
<g>
</g>
<g>
</g>
<g>
</g>
<g>
</g>
<g>
</g>
<g>
</g>
<g>
</g>
<g>
</g>
<g>
</g>
<g>
</g>
<g>
</g>
</svg>
