<?xml version="1.0" encoding="iso-8859-1"?>
<!-- Generator: Adobe Illustrator 19.0.0, SVG Export Plug-In . SVG Version: 6.00 Build 0)  -->
<svg version="1.1" id="Capa_1" xmlns="http://www.w3.org/2000/svg" xmlns:xlink="http://www.w3.org/1999/xlink" x="0px" y="0px"
	 viewBox="0 0 55.989 55.989" style="enable-background:new 0 0 55.989 55.989;" xml:space="preserve">
<g>
	<path d="M55.091,43.67L42.442,6.181C42.305,5.773,41.923,5.5,41.495,5.5s-0.811,0.273-0.947,0.681l-6.005,17.797
		c-2.57-3.046-6.409-4.988-10.698-4.988c-7.72,0-14,6.28-14,14c0,7.382,5.747,13.433,13,13.949v8.051c0,0.553,0.447,1,1,1
		s1-0.447,1-1v-8.051c2.246-0.16,4.343-0.851,6.174-1.949h9.826v10c0,0.553,0.447,1,1,1s1-0.447,1-1v-10h11.299
		c0.322,0,0.624-0.155,0.813-0.417C55.144,44.311,55.195,43.975,55.091,43.67z M24.845,41.403l2.707-2.707
		c0.391-0.391,0.391-1.023,0-1.414s-1.023-0.391-1.414,0l-2.293,2.293l-2.293-2.293c-0.391-0.391-1.023-0.391-1.414,0
		s-0.391,1.023,0,1.414l2.707,2.707v3.535c-6.15-0.511-11-5.67-11-11.949c0-6.617,5.383-12,12-12c4.359,0,8.171,2.344,10.273,5.83
		c0.368,0.612,0.678,1.25,0.931,1.908c0.045,0.117,0.088,0.234,0.129,0.352c0.064,0.184,0.126,0.368,0.181,0.555
		c0.067,0.229,0.126,0.46,0.179,0.694c0.039,0.17,0.073,0.341,0.104,0.513c0.044,0.244,0.084,0.489,0.113,0.737
		c0.014,0.114,0.026,0.229,0.036,0.344c0.031,0.352,0.054,0.707,0.054,1.067c0,0.472-0.035,0.938-0.089,1.4
		c-0.017,0.148-0.045,0.293-0.067,0.439c-0.048,0.312-0.106,0.622-0.178,0.927c-0.039,0.166-0.081,0.33-0.127,0.493
		c-0.082,0.29-0.178,0.576-0.281,0.858c-0.055,0.15-0.104,0.303-0.165,0.45c-0.164,0.399-0.347,0.789-0.554,1.167
		c-0.064,0.117-0.139,0.226-0.207,0.34c-0.163,0.277-0.334,0.55-0.52,0.813c-0.094,0.134-0.194,0.263-0.294,0.392
		c-0.196,0.255-0.402,0.504-0.62,0.744c-0.085,0.094-0.167,0.189-0.255,0.28c-0.66,0.683-1.405,1.299-2.232,1.824
		c-1.592,1.011-3.432,1.659-5.412,1.823V41.403z M42.845,42.989v-1.586l2.707-2.707c0.391-0.391,0.391-1.023,0-1.414
		s-1.023-0.391-1.414,0l-2.293,2.293l-2.293-2.293c-0.391-0.391-1.023-0.391-1.414,0s-0.391,1.023,0,1.414l2.707,2.707v1.586h-7.213
		c0.015-0.015,0.028-0.031,0.043-0.046c0.172-0.169,0.33-0.351,0.493-0.53c0.155-0.169,0.316-0.333,0.462-0.508
		c0.058-0.07,0.109-0.146,0.165-0.217c1.636-2.048,2.674-4.518,2.962-7.17c0.004-0.034,0.012-0.066,0.015-0.1
		c0.048-0.471,0.072-0.948,0.072-1.428c0-0.417-0.026-0.833-0.063-1.246c-0.01-0.117-0.021-0.233-0.035-0.348
		c-0.044-0.38-0.098-0.758-0.173-1.132c-0.027-0.137-0.064-0.27-0.095-0.406c-0.056-0.24-0.116-0.478-0.184-0.714
		c-0.052-0.183-0.106-0.365-0.166-0.545c-0.068-0.204-0.145-0.406-0.222-0.607c-0.118-0.307-0.246-0.608-0.384-0.904
		c-0.065-0.138-0.13-0.276-0.199-0.412c-0.104-0.204-0.21-0.407-0.324-0.605c-0.011-0.02-0.021-0.041-0.032-0.06l5.527-16.381
		l11.257,33.361H42.845z"/>
	<path d="M20.845,9.625c0-1.925-1.319-3.525-3.042-3.825C17.417,1.545,14.416,0,11.595,0C7.793,0,5.753,2.285,5.024,3.323
		C2.673,3.627,0.845,5.784,0.845,8.393c0,2.816,2.131,5.107,4.75,5.107H17.22C19.219,13.5,20.845,11.762,20.845,9.625z M2.845,8.393
		c0-1.713,1.233-3.106,2.75-3.106c0.366,0,0.706-0.206,0.882-0.528C6.538,4.646,8.018,2,11.595,2c1.587,0,4.25,0.617,4.25,4.75
		c0,0.553,0.447,1,1,1h0.375c0.896,0,1.625,0.841,1.625,1.875S18.117,11.5,17.22,11.5H5.595C4.079,11.5,2.845,10.106,2.845,8.393z"
		/>
</g>
<g>
</g>
<g>
</g>
<g>
</g>
<g>
</g>
<g>
</g>
<g>
</g>
<g>
</g>
<g>
</g>
<g>
</g>
<g>
</g>
<g>
</g>
<g>
</g>
<g>
</g>
<g>
</g>
<g>
</g>
</svg>
