<?xml version="1.0" encoding="iso-8859-1"?>
<!-- Generator: Adobe Illustrator 19.0.0, SVG Export Plug-In . SVG Version: 6.00 Build 0)  -->
<svg xmlns="http://www.w3.org/2000/svg" xmlns:xlink="http://www.w3.org/1999/xlink" version="1.1" id="Capa_1" x="0px" y="0px" viewBox="0 0 512.002 512.002" style="enable-background:new 0 0 512.002 512.002;" xml:space="preserve" width="512px" height="512px">
<g>
	<g>
		<g>
			<path d="M10.236,445.998H10c-5.524,0-10,4.477-10,10s4.476,10,10,10h0.236c5.522,0,10-4.477,10-10S15.759,445.998,10.236,445.998     z" fill="#4db2fa"/>
			<path d="M473.032,445.998h-32.837l-8.393-41.957c-0.936-4.674-5.039-8.039-9.807-8.039h-9.998V206.001h9.998     c5.523,0,10-4.477,10-10c0-5.523-4.477-10-10-10h-9.998v-20h25.001c21.376,0,39.305-14.986,43.866-35H492c5.522,0,10-4.477,10-10     c0-2.374-0.832-4.552-2.214-6.267c7.524-7.278,12.216-17.466,12.216-28.735C512.002,63.944,494.057,46,472,46     c-22.056,0-40,17.943-40,39.999c0,11.269,4.691,21.456,12.214,28.733C442.831,116.448,442,118.625,442,121     c0,5.523,4.477,10,10,10h7.904c-3.865,8.82-12.676,15-22.905,15h-70.003c-10.23,0-19.04-6.179-22.906-15h7.906     c5.522,0,10-4.477,10-10c0-2.374-0.832-4.552-2.213-6.267c7.522-7.277,12.214-17.466,12.214-28.735     c0-22.055-17.943-39.999-39.999-39.999c-22.057,0-40,17.943-40,39.999c0,11.269,4.69,21.456,12.213,28.733     c-1.383,1.716-2.214,3.893-2.214,6.268c0,5.523,4.478,10,10,10h11.134c4.561,20.014,22.49,35,43.865,35h25.002v20h-10.002     c-5.522,0-10,4.477-10,10c0,5.523,4.478,10,10,10h10.002V396h-10c-4.766,0-8.87,3.364-9.805,8.039l-8.393,41.957h-64.835v-49.999     h20c5.523,0,10-4.477,10-10v-14.999c0-13.785-11.213-25.001-24.998-25.001h-5.002v-25.001h20c5.523,0,10-4.477,10-10v-14.999     c0-13.785-11.215-25.001-25-25.001h-250c-13.785,0-25,11.215-25,25.001v14.999c0,5.523,4.477,10,10,10h20.001V346h-5.003     c-13.783,0-24.998,11.215-24.998,25.001V386c0,5.523,4.477,10,10,10h20.001v49.999H38.965c-5.523,0-10,4.477-10,10     s4.477,10,10,10H90h281.927c0.023,0,0.046,0.004,0.069,0.004h60.002c0.006,0,0.013,0,0.021,0c0.026,0,0.052-0.004,0.077-0.004     h40.936c5.522,0,10-4.477,10-10C483.032,450.475,478.555,445.998,473.032,445.998z M452,85.999c0-11.027,8.973-19.998,20-19.998     c11.029,0,20.002,8.971,20.002,19.999s-8.973,20-20.002,20C460.973,106,452,97.028,452,85.999z M331.998,106.001     c-11.028,0-20-8.972-20-20.001c0-11.028,8.972-19.999,20-19.999c11.027,0,19.999,8.971,19.999,19.999     C351.997,97.029,343.025,106.001,331.998,106.001z M48.965,301v-4.999c0-2.71,2.29-5.001,5-5.001h250c2.711,0,5,2.29,5,5.001V301     H48.965z M278.965,320.999V346H78.966v-25.001H278.965z M48.965,376v-4.999c0-2.71,2.289-5.001,4.998-5.001h250.004     c2.709,0,4.998,2.29,4.998,5.001V376H48.965z M278.965,445.998H90H78.966v-49.999h199.999V445.998z M384.196,445.998l6-29.996     h23.603l6,29.996H384.196z" fill="#4db2fa"/>
			<path d="M502,445.998h-0.238c-5.523,0-10,4.477-10,10s4.477,10,10,10H502c5.522,0,10-4.477,10-10S507.522,445.998,502,445.998z" fill="#4db2fa"/>
			<path d="M118.966,165.695c16.026,0,31.093-6.241,42.427-17.573c9.608-9.609,15.72-22.331,17.208-35.823     c0.421-3.822-1.386-7.548-4.649-9.582c-3.264-2.034-7.405-2.017-10.651,0.045c-4.788,3.041-10.34,4.648-16.055,4.648     c-8.011,0-15.544-3.12-21.208-8.784c-9.853-9.854-11.594-25.526-4.139-37.264c2.061-3.246,2.078-7.387,0.045-10.65     c-2.035-3.264-5.764-5.074-9.582-4.65c-13.488,1.485-26.209,7.595-35.822,17.206c-23.395,23.395-23.395,61.46,0,84.855     C87.872,159.454,102.939,165.695,118.966,165.695z M90.68,77.41c2.135-2.134,4.459-3.995,6.939-5.567     c-1.596,14.745,3.34,29.987,14.275,40.924c9.443,9.442,21.997,14.643,35.351,14.643c1.856,0,3.703-0.102,5.532-0.304     c-1.564,2.457-3.411,4.759-5.527,6.875c-7.555,7.555-17.6,11.715-28.284,11.715c-10.685,0-20.729-4.161-28.284-11.715     C75.084,118.383,75.084,93.005,90.68,77.41z" fill="#4db2fa"/>
		</g>
	</g>
</g>
<g>
</g>
<g>
</g>
<g>
</g>
<g>
</g>
<g>
</g>
<g>
</g>
<g>
</g>
<g>
</g>
<g>
</g>
<g>
</g>
<g>
</g>
<g>
</g>
<g>
</g>
<g>
</g>
<g>
</g>
</svg>
