<?xml version="1.0" encoding="iso-8859-1"?>
<!-- Generator: Adobe Illustrator 19.0.0, SVG Export Plug-In . SVG Version: 6.00 Build 0)  -->
<svg xmlns="http://www.w3.org/2000/svg" xmlns:xlink="http://www.w3.org/1999/xlink" version="1.1" id="Capa_1" x="0px" y="0px" viewBox="0 0 512 512" style="enable-background:new 0 0 512 512;" xml:space="preserve" width="512px" height="512px">
<g>
	<g>
		<g>
			<path d="M10.236,446H10c-5.523,0-10,4.477-10,10s4.477,10,10,10h0.236c5.521,0,10-4.477,10-10S15.758,446,10.236,446z" fill="#FFFFFF"/>
			<path d="M473.031,446h-51.033H412v-61.009c3.23,0.658,6.574,1.006,9.998,1.006c27.572,0,50.002-22.429,50.002-49.998     c0-27.57-22.43-50-50.002-50c-3.424,0-6.767,0.347-9.998,1.006V265.54c55.984-5.069,100-52.257,100-109.54     c0-60.654-49.346-110-110-110S292,95.346,292,156c0,57.283,44.014,104.471,100,109.54v30.485c-12.137,9.131-20,23.65-20,39.973     c0,16.322,7.863,30.84,20,39.971V446h-93.037v-49.999h20c5.523,0,10-4.477,10-10V371c0-13.785-11.211-25-24.994-25h-5.006     v-24.999h20c5.523,0,10-4.477,10-10V296c0-13.785-11.213-25-24.998-25h-250c-13.785,0-25,11.215-25,25v15.001     c0,5.523,4.479,10,10,10h20.002V346h-5.002c-13.785,0-25,11.215-25,25v15.001c0,5.523,4.479,10,10,10h20.002V446H38.965     c-5.521,0-10,4.477-10,10s4.479,10,10,10H90h331.998h51.033c5.523,0,10-4.477,10-10S478.555,446,473.031,446z M48.965,301.001     V296c0-2.71,2.291-5,5-5h250c2.709,0,4.998,2.29,4.998,5v5.001H48.965z M278.963,321.001V346H78.967v-24.999H278.963z      M48.965,376.001V371c0-2.71,2.291-5,5-5h250.004c2.707,0,4.994,2.29,4.994,5v5.001H48.965z M278.963,446H90H78.967v-49.999     h199.996V446z M312,156c0-49.626,40.373-90,90-90c49.625,0,90,40.374,90,90c0,46.246-35.065,84.45-80,89.441v-29.91     l26.131-26.133c3.906-3.905,3.906-10.237,0-14.142c-3.906-3.905-10.238-3.905-14.143,0L412,187.246V156c0-5.523-4.478-10-10-10     c-5.523,0-10,4.477-10,10v55.384c0,0.003,0,0.007,0,0.01v34.046C347.063,240.45,312,202.246,312,156z M392,335.999     c0-16.543,13.457-30,29.998-30c16.543-0.001,30.002,13.457,30.002,30c0,16.541-13.459,29.998-30.002,29.998     C405.457,365.997,392,352.54,392,335.999z" fill="#FFFFFF"/>
			<path d="M502,446h-0.236c-5.523,0-10,4.477-10,10s4.477,10,10,10H502c5.522,0,10-4.477,10-10S507.522,446,502,446z" fill="#FFFFFF"/>
			<path d="M108.967,146.001c27.57,0,50-22.429,50-49.998c0-27.571-22.43-50.002-50-50.002s-50,22.431-50,50.002     C58.967,123.572,81.396,146.001,108.967,146.001z M108.967,66c16.541,0,30,13.459,30,30.002c0,16.541-13.459,29.998-30,29.998     c-16.543,0-30-13.457-30-29.998C78.967,79.459,92.424,66,108.967,66z" fill="#FFFFFF"/>
			<path d="M98.967,175.999v19.999c0,5.523,4.477,10,10,10c5.521,0,10-4.477,10-10v-19.999c0-5.523-4.479-10-10-10     C103.443,165.999,98.967,170.476,98.967,175.999z" fill="#FFFFFF"/>
			<path d="M45.875,186.108c1.746,1.222,3.746,1.809,5.727,1.809c3.152,0,6.256-1.487,8.201-4.266l11.469-16.384     c3.168-4.524,2.068-10.76-2.457-13.927c-4.523-3.167-10.76-2.067-13.928,2.457l-11.469,16.384     C40.25,176.705,41.35,182.941,45.875,186.108z" fill="#FFFFFF"/>
			<path d="M149.117,153.34c-4.525,3.167-5.625,9.403-2.457,13.927l11.471,16.384c1.945,2.779,5.047,4.266,8.201,4.266     c1.98,0,3.98-0.587,5.727-1.809c4.523-3.167,5.623-9.403,2.455-13.927l-11.471-16.384     C159.875,151.272,153.641,150.172,149.117,153.34z" fill="#FFFFFF"/>
			<path d="M180.719,132.76l18.795,6.84c1.129,0.411,2.283,0.606,3.42,0.606c4.084,0,7.92-2.522,9.398-6.583     c1.889-5.19-0.789-10.928-5.979-12.817l-18.795-6.84c-5.188-1.89-10.928,0.787-12.816,5.977S175.529,130.871,180.719,132.76z" fill="#FFFFFF"/>
			<path d="M186.232,85.298c0.857,0,1.729-0.111,2.594-0.343l19.318-5.176c5.334-1.429,8.5-6.913,7.07-12.247     c-1.43-5.335-6.912-8.503-12.246-7.071l-19.318,5.176c-5.334,1.429-8.5,6.913-7.07,12.247     C177.777,82.352,181.816,85.298,186.232,85.298z" fill="#FFFFFF"/>
		</g>
	</g>
</g>
<g>
</g>
<g>
</g>
<g>
</g>
<g>
</g>
<g>
</g>
<g>
</g>
<g>
</g>
<g>
</g>
<g>
</g>
<g>
</g>
<g>
</g>
<g>
</g>
<g>
</g>
<g>
</g>
<g>
</g>
</svg>
