<?xml version="1.0" encoding="iso-8859-1"?>
<!-- Generator: Adobe Illustrator 19.0.0, SVG Export Plug-In . SVG Version: 6.00 Build 0)  -->
<svg xmlns="http://www.w3.org/2000/svg" xmlns:xlink="http://www.w3.org/1999/xlink" version="1.1" id="Capa_1" x="0px" y="0px" viewBox="0 0 511.999 511.999" style="enable-background:new 0 0 511.999 511.999;" xml:space="preserve" width="512px" height="512px">
<g>
	<g>
		<path d="M373.901,166.617c2.28-5.722,1.505-12.133-2.071-17.151L270.694,7.572C267.314,2.831,261.821,0,255.998,0    c-5.822,0.001-11.315,2.832-14.694,7.572L188.32,81.908c-2.479,3.478-1.669,8.308,1.809,10.787    c3.479,2.478,8.308,1.669,10.786-1.809l47.35-66.432v99.408c-14.676,3.499-25.627,16.714-25.627,32.445    c0,18.395,14.966,33.361,33.361,33.361c18.395,0,33.361-14.966,33.361-33.361c0-15.732-10.951-28.947-25.627-32.445V24.455    l94.714,132.882h-24.093c-3.167,0-6.014,1.93-7.185,4.873l-38.637,97.026h-65.065l-38.637-97.026    c-1.171-2.943-4.018-4.873-7.185-4.873h-24.093l25.379-35.605c2.479-3.478,1.669-8.308-1.809-10.787    c-3.477-2.477-8.306-1.668-10.786,1.809l-26.168,36.714c-3.574,5.016-4.348,11.426-2.07,17.149l0.582,1.459    c0.001,0.002,0.002,0.005,0.003,0.007l55.202,138.622v35.547H177.06c-9.95,0-18.045,8.096-18.045,18.045v53.886    c0,4.272,3.463,7.734,7.734,7.734s7.734-3.462,7.734-7.734v-17.37h158.51v97.142c0,1.422-1.156,2.578-2.578,2.578h-7.518v-75.262    c0-4.272-3.462-7.734-7.734-7.734s-7.734,3.462-7.734,7.734v75.262h-130.37c-1.421,0-2.578-1.156-2.578-2.578v-47.505    c0-4.272-3.463-7.734-7.734-7.734s-7.734,3.462-7.734,7.734v47.505c0,9.949,8.096,18.045,18.045,18.045h153.354    c9.95,0,18.045-8.096,18.045-18.045V360.297c0-9.95-8.096-18.045-18.045-18.045h-12.66v-34.634L373.901,166.617z M273.893,156.307    c0,9.866-8.026,17.893-17.893,17.893c-9.866,0-17.893-8.026-17.893-17.893c0-9.867,8.027-17.893,17.893-17.893    C265.866,138.414,273.893,146.441,273.893,156.307z M330.413,357.719c1.422,0,2.578,1.156,2.578,2.578v21.049h-158.51v-21.049    c0-1.422,1.157-2.578,2.578-2.578h24.558h108.402H330.413z M209.35,342.252v-29.296h92.935v29.296H209.35z M305.138,297.489    h-98.277l-49.652-124.685h15.192l38.637,97.026c1.171,2.943,4.018,4.873,7.185,4.873h75.553c3.167,0,6.014-1.93,7.185-4.873    l38.637-97.026h15.192L305.138,297.489z" fill="#4db2fa"/>
	</g>
</g>
<g>
</g>
<g>
</g>
<g>
</g>
<g>
</g>
<g>
</g>
<g>
</g>
<g>
</g>
<g>
</g>
<g>
</g>
<g>
</g>
<g>
</g>
<g>
</g>
<g>
</g>
<g>
</g>
<g>
</g>
</svg>
