<?xml version="1.0" encoding="iso-8859-1"?>
<!-- Generator: Adobe Illustrator 19.0.0, SVG Export Plug-In . SVG Version: 6.00 Build 0)  -->
<svg xmlns="http://www.w3.org/2000/svg" xmlns:xlink="http://www.w3.org/1999/xlink" version="1.1" id="Capa_1" x="0px" y="0px" viewBox="0 0 511.998 511.998" style="enable-background:new 0 0 511.998 511.998;" xml:space="preserve" width="512px" height="512px">
<g>
	<g>
		<g>
			<path d="M156.732,262.821c-5.524,0-10,4.477-10,10c0,2.527-2.057,4.583-4.584,4.583h-25.455c-0.929-0.015-1.85,0.094-2.76,0.337     c-1.186,0.317-2.285,0.846-3.254,1.544c-1.182,0.848-2.129,1.917-2.82,3.116c-0.694,1.199-1.146,2.555-1.29,4.001     c-0.12,1.19-0.029,2.408,0.29,3.595c0.244,0.909,0.613,1.767,1.086,2.555l6.549,11.343c1.853,3.208,5.213,5.002,8.67,5.002     c1.696,0,3.416-0.432,4.99-1.341c3.667-2.117,5.486-6.206,4.891-10.154h9.104c13.556,0,24.584-11.028,24.584-24.583     C166.732,267.298,162.255,262.821,156.732,262.821z" fill="#4a7f9e"/>
			<path d="M98.699,238.369c-0.691-1.201-1.641-2.271-2.822-3.119c-0.957-0.688-2.039-1.213-3.207-1.531     c-0.926-0.253-1.865-0.359-2.807-0.35H76.766c-5.522,0-10,4.477-10,10c0,4.233,2.631,7.853,6.348,9.311l-4.553,7.885     c-6.773,11.74-2.736,26.802,9,33.578c1.574,0.91,3.293,1.341,4.99,1.341c3.456,0,6.817-1.793,8.67-5.001     c2.762-4.783,1.122-10.899-3.66-13.66c-2.188-1.263-2.94-4.073-1.679-6.259L98.61,248.52c0.476-0.789,0.845-1.648,1.088-2.559     c0.318-1.186,0.41-2.401,0.29-3.59C99.844,240.924,99.393,239.567,98.699,238.369z" fill="#4a7f9e"/>
			<path d="M114.659,223.719c2.188-1.263,4.997-0.512,6.261,1.676l12.729,22.046c0.439,0.795,0.991,1.536,1.646,2.196     c0.881,0.888,1.908,1.589,3.02,2.084c1.313,0.589,2.699,0.871,4.071,0.871c0.006,0,0.013,0,0.019,0     c1.395,0,2.805-0.292,4.138-0.901c1.061-0.483,2.045-1.153,2.895-1.997c0.681-0.674,1.252-1.436,1.705-2.254l6.548-11.343     c2.761-4.783,1.122-10.899-3.661-13.66c-3.666-2.117-8.115-1.648-11.237,0.841l-4.552-7.884     c-6.776-11.737-21.84-15.774-33.58-8.997c-4.783,2.761-6.422,8.877-3.661,13.66C103.761,224.843,109.875,226.479,114.659,223.719     z" fill="#4a7f9e"/>
			<path d="M435.998,25.999h-80c-27.57,0-50.001,22.43-50.001,50v30h-24.999V91.003c0-13.787-11.215-25.004-24.998-25.004     c-13.785,0-25,11.217-25,25.004v14.996h-25v-30c0-27.57-22.43-50-50-50H75.999c-27.57,0-50.001,22.43-50.001,50v40v219.999     c0,16.543,13.458,30.001,30,30.001h120.003c16.542,0,29.999-13.459,29.999-30.001v-49.999h25v179.998H90H38.965     c-5.523,0-10,4.477-10,10s4.477,10,10,10H90h150.961c0.014,0,0.025,0.002,0.039,0.002h29.998c0.014,0,0.025-0.002,0.039-0.002     h150.959h51.036c5.522,0,10-4.477,10-10s-4.478-10-10-10h-51.036H280.998V285.998h24.999v49.999     c0,16.543,13.458,30.001,29.999,30.001H456c16.541,0,29.998-13.458,29.998-30.001V115.999v-40     C485.998,48.429,463.568,25.999,435.998,25.999z M186,335.998c0,5.515-4.485,10.001-9.999,10.001H55.998     c-5.514,0-10-4.486-10-10.001V125.999h19.999v10.002c0,16.541,13.458,29.999,30.001,29.999H136     c16.543,0,30.002-13.458,30.002-29.999v-10.002H186V335.998z M85.997,136V95.997c0-5.514,4.486-9.999,10.001-9.999H136     c5.516,0,10.002,4.486,10.002,9.999V136c0,5.514-4.486,9.999-10.002,9.999H95.998C90.483,145.999,85.997,141.515,85.997,136z      M186,105.999h-19.998V95.997c0-16.542-13.459-29.999-30.002-29.999H95.998c-16.543,0-30.001,13.457-30.001,29.999v10.003H45.998     v-30c0-16.542,13.459-30,30.001-30H156c16.542,0,30,13.458,30,30V105.999z M231,265.999h-25v-0.001V125.999h25V265.999z      M260.998,465.996H251V91.003c0-2.713,2.289-5.004,5-5.004c2.709,0,4.998,2.292,4.998,5.004V465.996z M305.997,265.999h-24.999     v-0.001V125.999h24.999V265.999z M465.998,335.998c0,5.515-4.484,10.001-9.998,10.001H335.996c-5.514,0-9.999-4.486-9.999-10.001     V125.999h20.001v10.002c0,16.541,13.457,29.999,29.998,29.999h40.005C432.543,165.999,446,152.542,446,136v-10.001h19.998     V335.998z M365.998,136V95.997c0-5.514,4.484-9.999,9.998-9.999h40.005c5.514,0,9.999,4.486,9.999,9.999V136     c0,5.514-4.485,9.999-9.999,9.999h-40.005C370.482,145.999,365.998,141.515,365.998,136z M465.998,105.999H446V95.997     c0-16.542-13.457-29.999-29.999-29.999h-40.005c-16.541,0-29.998,13.457-29.998,29.999v10.003h-20.001v-30     c0-16.542,13.458-30,30.001-30h80c16.543,0,30,13.458,30,30V105.999z" fill="#4a7f9e"/>
			<path d="M436.73,262.821c-5.523,0-10,4.477-10,10c0,2.527-2.057,4.583-4.583,4.583h-25.456c-0.917-0.018-1.84,0.092-2.745,0.334     c-1.191,0.316-2.295,0.847-3.268,1.548c-1.181,0.848-2.129,1.917-2.821,3.118c-0.693,1.198-1.146,2.554-1.288,4.001     c-0.121,1.189-0.029,2.407,0.289,3.592c0.244,0.911,0.613,1.77,1.088,2.558l6.551,11.343c1.852,3.208,5.213,5.001,8.668,5.001     c1.697,0,3.417-0.432,4.992-1.342c3.666-2.117,5.484-6.205,4.89-10.153h9.102c13.556,0,24.583-11.028,24.583-24.583     C446.73,267.298,442.254,262.821,436.73,262.821z" fill="#4a7f9e"/>
			<path d="M378.699,238.372c-0.691-1.202-1.643-2.274-2.826-3.123c-0.959-0.691-2.045-1.216-3.217-1.533     c-0.922-0.251-1.865-0.361-2.794-0.347h-13.096c-5.522,0-10,4.477-10,10c0,4.233,2.63,7.853,6.347,9.311l-4.552,7.883     c-6.776,11.739-2.741,26.803,8.997,33.58c1.575,0.91,3.294,1.341,4.99,1.341c3.457,0,6.818-1.793,8.67-5.001     c2.762-4.783,1.123-10.899-3.66-13.66c-2.188-1.263-2.939-4.071-1.676-6.26l12.727-22.045c0.475-0.789,0.844-1.649,1.088-2.56     c0.318-1.185,0.41-2.402,0.289-3.59C379.843,240.924,379.392,239.57,378.699,238.372z" fill="#4a7f9e"/>
			<path d="M394.658,223.719c2.189-1.263,4.996-0.511,6.26,1.676l12.728,22.046c0.441,0.797,0.994,1.54,1.652,2.202     c0.881,0.886,1.906,1.585,3.017,2.08c1.313,0.588,2.698,0.87,4.069,0.87c0.006,0,0.014,0,0.018,0     c1.383,0,2.781-0.287,4.103-0.885c1.084-0.488,2.089-1.172,2.953-2.037c0.672-0.669,1.234-1.421,1.682-2.23l6.548-11.342     c2.761-4.783,1.122-10.899-3.661-13.66c-3.666-2.117-8.115-1.647-11.236,0.841l-4.553-7.884     c-6.776-11.738-21.84-15.774-33.58-8.997c-4.783,2.761-6.422,8.877-3.66,13.66C383.759,224.841,389.874,226.479,394.658,223.719z     " fill="#4a7f9e"/>
			<path d="M10.236,465.996H10c-5.523,0-10,4.477-10,10s4.477,10,10,10h0.236c5.522,0,10-4.477,10-10S15.759,465.996,10.236,465.996     z" fill="#4a7f9e"/>
			<path d="M501.998,465.996h-0.236c-5.523,0-10,4.477-10,10s4.477,10,10,10h0.236c5.523,0,10-4.477,10-10     S507.521,465.996,501.998,465.996z" fill="#4a7f9e"/>
		</g>
	</g>
</g>
<g>
</g>
<g>
</g>
<g>
</g>
<g>
</g>
<g>
</g>
<g>
</g>
<g>
</g>
<g>
</g>
<g>
</g>
<g>
</g>
<g>
</g>
<g>
</g>
<g>
</g>
<g>
</g>
<g>
</g>
</svg>
