<?xml version="1.0" encoding="iso-8859-1"?>
<!-- Generator: Adobe Illustrator 19.0.0, SVG Export Plug-In . SVG Version: 6.00 Build 0)  -->
<svg version="1.1" id="Capa_1" xmlns="http://www.w3.org/2000/svg" xmlns:xlink="http://www.w3.org/1999/xlink" x="0px" y="0px"
	 viewBox="0 0 511.999 511.999" style="enable-background:new 0 0 511.999 511.999;" xml:space="preserve">
<polygon style="fill:#FCAD3A;" points="421.161,264.258 421.161,123.87 24.774,123.87 24.774,264.258 24.774,280.774 
	24.774,355.096 487.226,355.096 487.226,264.258 "/>
<path d="M487.226,363.354H24.774c-4.561,0-8.258-3.697-8.258-8.258V123.87c0-4.561,3.697-8.258,8.258-8.258h396.387
	c4.561,0,8.258,3.697,8.258,8.258v132.129h57.806c4.561,0,8.258,3.697,8.258,8.258v90.839
	C495.484,359.657,491.786,363.354,487.226,363.354z M33.033,346.838h445.935v-74.322h-57.806c-4.561,0-8.258-3.697-8.258-8.258
	v-132.13H33.033V346.838z"/>
<path style="fill:#DDDDDD;" d="M334.451,222.967h86.71v-57.806h-86.71c-15.963,0-28.903,12.94-28.903,28.903l0,0
	C305.548,210.027,318.488,222.967,334.451,222.967z"/>
<path d="M421.161,231.225h-86.71c-20.492,0-37.161-16.671-37.161-37.161s16.669-37.161,37.161-37.161h86.71
	c4.561,0,8.258,3.697,8.258,8.258v57.806C429.42,227.528,425.722,231.225,421.161,231.225z M334.451,173.419
	c-11.383,0-20.645,9.262-20.645,20.645c0,11.383,9.262,20.645,20.645,20.645h78.452v-41.291L334.451,173.419L334.451,173.419z"/>
<rect x="66.061" y="165.158" style="fill:#DDDDDD;" width="107.356" height="57.806"/>
<path d="M173.419,231.225H66.064c-4.561,0-8.258-3.697-8.258-8.258v-57.806c0-4.561,3.697-8.258,8.258-8.258h107.355
	c4.561,0,8.258,3.697,8.258,8.258v57.806C181.677,227.528,177.98,231.225,173.419,231.225z M74.322,214.709h90.839v-41.291H74.322
	V214.709z"/>
<path d="M478.967,297.29H24.774c-4.561,0-8.258-3.697-8.258-8.258s3.697-8.258,8.258-8.258h454.194c4.561,0,8.258,3.697,8.258,8.258
	S483.528,297.29,478.967,297.29z"/>
<rect x="198.194" y="165.158" style="fill:#DDDDDD;" width="74.32" height="189.935"/>
<path d="M272.516,363.354h-74.322c-4.561,0-8.258-3.697-8.258-8.258V165.161c0-4.561,3.697-8.258,8.258-8.258h74.322
	c4.561,0,8.258,3.697,8.258,8.258v189.935C280.774,359.657,277.077,363.354,272.516,363.354z M206.452,346.838h57.806V173.419
	h-57.806V346.838z"/>
<circle style="fill:#8C6B37;" cx="99.097" cy="355.093" r="33.033"/>
<path d="M99.097,396.387c-22.768,0-41.291-18.524-41.291-41.291s18.522-41.291,41.291-41.291s41.291,18.524,41.291,41.291
	S121.865,396.387,99.097,396.387z M99.097,330.322c-13.662,0-24.774,11.113-24.774,24.774s11.113,24.774,24.774,24.774
	s24.774-11.113,24.774-24.774S112.758,330.322,99.097,330.322z"/>
<circle style="fill:#8C6B37;" cx="404.647" cy="355.093" r="33.033"/>
<path d="M404.645,396.387c-22.766,0-41.291-18.524-41.291-41.291s18.524-41.291,41.291-41.291s41.291,18.524,41.291,41.291
	S427.411,396.387,404.645,396.387z M404.645,330.322c-13.662,0-24.774,11.113-24.774,24.774s11.113,24.774,24.774,24.774
	s24.774-11.113,24.774-24.774S418.307,330.322,404.645,330.322z"/>
<rect x="478.967" y="289.032" style="fill:#9BFC1D;" width="24.774" height="41.291"/>
<path d="M503.742,338.58h-24.775c-4.561,0-8.258-3.697-8.258-8.258v-41.291c0-4.561,3.697-8.258,8.258-8.258h24.774
	c4.561,0,8.258,3.697,8.258,8.258v41.291C512,334.883,508.303,338.58,503.742,338.58z M487.226,322.064h8.258v-24.774h-8.258
	V322.064z"/>
<rect x="8.258" y="289.032" style="fill:#EE5281;" width="24.774" height="41.291"/>
<path d="M33.033,338.58H8.258c-4.561,0-8.258-3.697-8.258-8.258v-41.291c0-4.561,3.697-8.258,8.258-8.258h24.774
	c4.561,0,8.258,3.697,8.258,8.258v41.291C41.291,334.883,37.592,338.58,33.033,338.58z M16.516,322.064h8.258v-24.774h-8.258
	V322.064z"/>
<g>
</g>
<g>
</g>
<g>
</g>
<g>
</g>
<g>
</g>
<g>
</g>
<g>
</g>
<g>
</g>
<g>
</g>
<g>
</g>
<g>
</g>
<g>
</g>
<g>
</g>
<g>
</g>
<g>
</g>
</svg>
