<?xml version="1.0" encoding="iso-8859-1"?>
<!-- Generator: Adobe Illustrator 19.0.0, SVG Export Plug-In . SVG Version: 6.00 Build 0)  -->
<svg xmlns="http://www.w3.org/2000/svg" xmlns:xlink="http://www.w3.org/1999/xlink" version="1.1" id="Capa_1" x="0px" y="0px" viewBox="0 0 512 512" style="enable-background:new 0 0 512 512;" xml:space="preserve" width="512px" height="512px">
<g>
	<g>
		<g>
			<path d="M512,290.465c0-40.575-30.934-152.429-60.179-217.606c-7.658-17.067-20.223-26.856-34.472-26.856     c-15.224,0-28.848,11.229-37.377,30.808c-6.205,14.24-12.487,30.601-18.519,47.88C347.936,79.242,305.781,46,256.002,46     c-49.681,0-91.768,33.109-105.372,78.419c-6.573-18.722-13.466-36.405-20.267-51.562c-7.658-17.067-20.224-26.855-34.473-26.855     c-15.223,0-28.846,11.229-37.378,30.808C30.076,142.074,0,251.896,0,290.465c0,50.041,36.717,89.925,85.27,94.775V446H76     l-36.439-0.004c-0.001,0-0.001,0-0.002,0c-5.521,0-9.999,4.477-10,9.999c0,5.523,4.477,10,10,10.001L75.998,466c0,0,0,0,0.001,0     h19.269c0.001,0,0.002,0,0.002,0c0.001,0,0.002,0,0.002,0l160.711-0.001c0.006,0,0.012,0.001,0.018,0.001     c0.006,0,0.012-0.001,0.018-0.001l160.676-0.001c0.012,0,0.022,0.002,0.033,0.002c0.012,0,0.022-0.002,0.033-0.002h55.678     c5.523,0,10-4.478,10-10c0-5.522-4.477-10-10-10h-45.711v-60.785C474.576,380.198,511.998,339.621,512,290.465z M256.002,66     c49.625,0,90,40.374,90,90.002c0,46.247-35.064,84.452-80.002,89.441V215.53l26.133-26.132     c3.906-3.905,3.906-10.237,0.001-14.142c-3.904-3.905-10.235-3.905-14.142,0L266,187.247V156c0-5.523-4.478-10-10-10     c-5.523,0-10,4.477-10,10v89.443c-44.936-4.991-79.998-43.196-79.998-89.441C166.002,106.375,206.375,66,256.002,66z      M95.271,205.87c-5.522,0-10,4.477-10,10.001v0.002v49.152l-9.371-9.371c-3.904-3.905-10.236-3.905-14.143,0     c-3.904,3.905-3.904,10.237,0,14.143l23.514,23.514v71.773C47.959,360.329,20,329.274,20,290.465     C20,257.632,47.566,152.001,76.848,84.8c5.129-11.77,12.248-18.797,19.043-18.797c5.934,0,11.998,5.624,16.227,15.044     c30.092,67.064,58.423,174.83,58.423,209.418c-0.002,38.113-28.481,69.68-65.27,74.588v-29.238l26.133-26.135     c3.904-3.905,3.904-10.236-0.001-14.142c-3.905-3.905-10.237-3.905-14.142,0.001l-11.99,11.99v-91.656v-0.002     C105.271,210.348,100.794,205.87,95.271,205.87z M246,445.999L105.27,446v-60.787c47.848-5.015,85.268-45.592,85.27-94.748     c0-12.085-2.744-30.491-7.37-52.104c17.069,15.111,38.85,25.009,62.83,27.181v21.463c-22.795,4.646-40.001,24.847-40.001,48.992     c0,24.146,17.206,44.348,40.001,48.994V445.999z M256,365.997c-16.543,0-30.001-13.458-30.001-30     c0-16.541,13.458-29.998,30.001-29.998c16.542,0,30,13.457,30,29.998C286,352.539,272.542,365.997,256,365.997z M406.727,445.999     H266v-61.008c22.795-4.646,40-24.848,40-48.994s-17.205-44.347-40-48.992v-21.462c24.079-2.181,45.941-12.15,63.042-27.368     c-4.747,21.906-7.583,40.455-7.583,52.29c0,50.041,36.717,89.925,85.268,94.775V445.999z M426.727,365.053v-29.239l26.135-26.135     c3.905-3.904,3.904-10.236,0-14.142c-3.906-3.905-10.237-3.905-14.143,0.001l-11.992,11.991v-91.657v-0.002     c0-5.523-4.477-10.001-10-10.001c-5.522,0-10,4.477-10,10.001v0.002v49.151l-9.368-9.37c-3.904-3.905-10.235-3.905-14.142,0     c-3.906,3.904-3.906,10.236-0.001,14.143l23.511,23.513v71.774c-37.309-4.754-65.268-35.81-65.268-74.618     c0-32.833,27.568-138.464,56.849-205.666c5.128-11.77,12.247-18.797,19.042-18.797c5.933,0,11.998,5.624,16.225,15.044     C463.667,148.112,492,255.878,492,290.464C491.998,328.577,463.518,360.144,426.727,365.053z" fill="#4db2fa"/>
			<path d="M10.474,445.996H10c-5.523,0-10,4.478-10,10c0,5.522,4.477,10,10,10h0.474c5.523,0,10-4.478,10-10     C20.474,450.473,15.996,445.996,10.474,445.996z" fill="#4db2fa"/>
			<path d="M501.998,445.998h-0.475c-5.523,0-10,4.478-10,10c0,5.522,4.477,10,10,10h0.475c5.522,0,10-4.478,10-10     C511.998,450.475,507.52,445.998,501.998,445.998z" fill="#4db2fa"/>
			<path d="M301.67,145.114c5.508,0,10-4.492,10-9.999c0-5.508-4.492-10.002-10-10.002c-5.51,0-10.002,4.494-10.002,10.002     C291.668,140.621,296.16,145.114,301.67,145.114z" fill="#4db2fa"/>
			<path d="M89.467,125.1c-5.509,0-10.001,4.492-10.001,10.001c0,5.506,4.492,10,10.001,10c5.508,0,10-4.494,10-10     C99.467,129.592,94.975,125.1,89.467,125.1z" fill="#4db2fa"/>
			<path d="M385.726,193.225c-5.507,0-9.999,4.492-9.999,10c0,5.507,4.492,10.001,9.999,10.001c5.509,0,10.001-4.494,10.001-10.001     C395.727,197.717,391.235,193.225,385.726,193.225z" fill="#4db2fa"/>
			<path d="M242.92,114.488c5.508,0,10-4.492,10-10c0-5.507-4.492-10.001-10-10.001c-5.51,0-10.002,4.494-10.002,10.001     C232.918,109.996,237.41,114.488,242.92,114.488z" fill="#4db2fa"/>
			<path d="M202.592,168.85c5.508,0,10-4.492,10-10c0-5.507-4.492-9.999-10-9.999c-5.51,0-10.002,4.492-10.002,9.999     C192.59,164.358,197.082,168.85,202.592,168.85z" fill="#4db2fa"/>
			<path d="M454.471,245.094c-5.509,0-9.999,4.492-9.999,10s4.49,10,9.999,10c5.508,0,10-4.492,10-10     S459.979,245.094,454.471,245.094z" fill="#4db2fa"/>
			<path d="M136.971,258.221c5.508,0,10.002-4.494,10.002-10.002c0-5.507-4.494-9.999-10.002-9.999s-10,4.492-10,9.999     C126.971,253.727,131.463,258.221,136.971,258.221z" fill="#4db2fa"/>
			<path d="M431.975,145.089c-5.51,0-10,4.494-10,10c0,5.509,4.49,10.002,10,10.002c5.507,0,9.999-4.492,9.999-10.002     C441.974,149.584,437.482,145.089,431.975,145.089z" fill="#4db2fa"/>
		</g>
	</g>
</g>
<g>
</g>
<g>
</g>
<g>
</g>
<g>
</g>
<g>
</g>
<g>
</g>
<g>
</g>
<g>
</g>
<g>
</g>
<g>
</g>
<g>
</g>
<g>
</g>
<g>
</g>
<g>
</g>
<g>
</g>
</svg>
