<?xml version="1.0" encoding="utf-8"?>
<!-- Generator: Adobe Illustrator 18.0.0, SVG Export Plug-In . SVG Version: 6.00 Build 0)  -->
<!DOCTYPE svg PUBLIC "-//W3C//DTD SVG 1.1//EN" "http://www.w3.org/Graphics/SVG/1.1/DTD/svg11.dtd">
<svg version="1.1" id="Capa_1" xmlns="http://www.w3.org/2000/svg" xmlns:xlink="http://www.w3.org/1999/xlink" x="0px" y="0px"
	 viewBox="0 0 512 512" enable-background="new 0 0 512 512" xml:space="preserve">
<g>
	<g>
		<g>
			<path fill="#49F299" d="M512,290.5c0-40.6-30.9-152.4-60.2-217.6C444.2,55.8,431.6,46,417.3,46c-15.2,0-28.8,11.2-37.4,30.8
				c-6.2,14.2-12.5,30.6-18.5,47.9C347.9,79.2,305.8,46,256,46c-49.7,0-91.8,33.1-105.4,78.4c-6.6-18.7-13.5-36.4-20.3-51.6
				C122.7,55.8,110.1,46,95.9,46C80.7,46,67,57.2,58.5,76.8C30.1,142.1,0,251.9,0,290.5c0,50,36.7,89.9,85.3,94.8V446H76l-36.4,0
				c0,0,0,0,0,0c-5.5,0-10,4.5-10,10c0,5.5,4.5,10,10,10l36.4,0c0,0,0,0,0,0h19.3c0,0,0,0,0,0c0,0,0,0,0,0l160.7,0c0,0,0,0,0,0
				s0,0,0,0l160.7,0c0,0,0,0,0,0c0,0,0,0,0,0h55.7c5.5,0,10-4.5,10-10s-4.5-10-10-10h-45.7v-60.8C474.6,380.2,512,339.6,512,290.5z
				 M256,66c49.6,0,90,40.4,90,90c0,46.2-35.1,84.5-80,89.4v-29.9l26.1-26.1c3.9-3.9,3.9-10.2,0-14.1c-3.9-3.9-10.2-3.9-14.1,0
				l-12,12V156c0-5.5-4.5-10-10-10c-5.5,0-10,4.5-10,10v89.4c-44.9-5-80-43.2-80-89.4C166,106.4,206.4,66,256,66z M95.3,205.9
				c-5.5,0-10,4.5-10,10v0V265l-9.4-9.4c-3.9-3.9-10.2-3.9-14.1,0c-3.9,3.9-3.9,10.2,0,14.1l23.5,23.5v71.8
				C48,360.3,20,329.3,20,290.5C20,257.6,47.6,152,76.8,84.8C82,73,89.1,66,95.9,66c5.9,0,12,5.6,16.2,15
				c30.1,67.1,58.4,174.8,58.4,209.4c0,38.1-28.5,69.7-65.3,74.6v-29.2l26.1-26.1c3.9-3.9,3.9-10.2,0-14.1c-3.9-3.9-10.2-3.9-14.1,0
				l-12,12v-91.7v0C105.3,210.3,100.8,205.9,95.3,205.9z M246,446l-140.7,0v-60.8c47.8-5,85.3-45.6,85.3-94.7
				c0-12.1-2.7-30.5-7.4-52.1c17.1,15.1,38.8,25,62.8,27.2V287c-22.8,4.6-40,24.8-40,49c0,24.1,17.2,44.3,40,49V446z M256,366
				c-16.5,0-30-13.5-30-30c0-16.5,13.5-30,30-30c16.5,0,30,13.5,30,30C286,352.5,272.5,366,256,366z M406.7,446H266v-61
				c22.8-4.6,40-24.8,40-49s-17.2-44.3-40-49v-21.5c24.1-2.2,45.9-12.1,63-27.4c-4.7,21.9-7.6,40.5-7.6,52.3
				c0,50,36.7,89.9,85.3,94.8V446z M426.7,365.1v-29.2l26.1-26.1c3.9-3.9,3.9-10.2,0-14.1c-3.9-3.9-10.2-3.9-14.1,0l-12,12v-91.7v0
				c0-5.5-4.5-10-10-10c-5.5,0-10,4.5-10,10v0V265l-9.4-9.4c-3.9-3.9-10.2-3.9-14.1,0c-3.9,3.9-3.9,10.2,0,14.1l23.5,23.5v71.8
				c-37.3-4.8-65.3-35.8-65.3-74.6c0-32.8,27.6-138.5,56.8-205.7c5.1-11.8,12.2-18.8,19-18.8c5.9,0,12,5.6,16.2,15
				c30.1,67.1,58.4,174.8,58.4,209.4C492,328.6,463.5,360.1,426.7,365.1z"/>
			<path fill="#49F299" d="M10.5,446H10c-5.5,0-10,4.5-10,10s4.5,10,10,10h0.5c5.5,0,10-4.5,10-10C20.5,450.5,16,446,10.5,446z"/>
			<path fill="#49F299" d="M502,446h-0.5c-5.5,0-10,4.5-10,10s4.5,10,10,10h0.5c5.5,0,10-4.5,10-10C512,450.5,507.5,446,502,446z"/>
			<path fill="#49F299" d="M301.7,145.1c5.5,0,10-4.5,10-10c0-5.5-4.5-10-10-10c-5.5,0-10,4.5-10,10
				C291.7,140.6,296.2,145.1,301.7,145.1z"/>
			<path fill="#49F299" d="M89.5,125.1c-5.5,0-10,4.5-10,10c0,5.5,4.5,10,10,10c5.5,0,10-4.5,10-10C99.5,129.6,95,125.1,89.5,125.1z
				"/>
			<path fill="#49F299" d="M385.7,193.2c-5.5,0-10,4.5-10,10c0,5.5,4.5,10,10,10c5.5,0,10-4.5,10-10
				C395.7,197.7,391.2,193.2,385.7,193.2z"/>
			<path fill="#49F299" d="M242.9,114.5c5.5,0,10-4.5,10-10c0-5.5-4.5-10-10-10c-5.5,0-10,4.5-10,10
				C232.9,110,237.4,114.5,242.9,114.5z"/>
			<path fill="#49F299" d="M202.6,168.9c5.5,0,10-4.5,10-10c0-5.5-4.5-10-10-10c-5.5,0-10,4.5-10,10
				C192.6,164.4,197.1,168.9,202.6,168.9z"/>
			<path fill="#49F299" d="M454.5,245.1c-5.5,0-10,4.5-10,10s4.5,10,10,10c5.5,0,10-4.5,10-10S460,245.1,454.5,245.1z"/>
			<path fill="#49F299" d="M137,258.2c5.5,0,10-4.5,10-10c0-5.5-4.5-10-10-10s-10,4.5-10,10C127,253.7,131.5,258.2,137,258.2z"/>
			<path fill="#49F299" d="M432,145.1c-5.5,0-10,4.5-10,10c0,5.5,4.5,10,10,10c5.5,0,10-4.5,10-10C442,149.6,437.5,145.1,432,145.1z
				"/>
		</g>
	</g>
</g>
</svg>
